<svg width="25" height="37" viewBox="0 0 25 37" fill="none" xmlns="http://www.w3.org/2000/svg">
<path d="M20.8308 1.18469C22.2464 1.18469 23.3945 2.25875 23.3945 3.58314V33.5638C23.3945 34.8882 22.2464 35.9622 20.8308 35.9622H3.20477C1.78908 35.9622 0.640991 34.8882 0.640991 33.5638V3.58314C0.640991 2.25875 1.78908 1.18469 3.20477 1.18469H20.8308Z" fill="#D1E7FF"/>
<path d="M16.0492 14.0553C16.6629 14.0553 17.1773 14.4878 17.2438 15.0582L18.101 22.4244C18.1787 23.0892 17.6219 23.6701 16.9065 23.6701H7.12887C6.41342 23.6701 5.8566 23.0892 5.93431 22.4244L6.79158 15.0582C6.85807 14.4878 7.37243 14.0553 7.98613 14.0553H16.0492Z" fill="#B9DCFF"/>
<path d="M20.9519 1.18722C23.0138 1.27693 22.9044 4.18265 20.8403 4.18265H12.4985C7.71968 4.18265 3.84572 7.80678 3.84572 12.2774V35.9621H3.20478C1.78885 35.9621 0.640991 34.8883 0.640991 33.5636V3.58304C0.640991 2.25842 1.78885 1.18459 3.20478 1.18459C3.32079 1.18459 20.8579 1.18309 20.9519 1.18722Z" fill="#E8F3FF"/>
<path d="M23.3945 30.7156V33.5637C23.3945 34.8881 22.2464 35.9622 20.8308 35.9622H3.20477C1.78908 35.9622 0.640991 34.8881 0.640991 33.5637V30.7156H23.3945Z" fill="#B9DCFF"/>
<path d="M3.8457 30.7156V33.5726C3.8457 35.5259 0.640991 35.6257 0.640991 33.5637V30.7156H3.8457Z" fill="#D1E7FF"/>
<path d="M16.0494 16.3038C12.1671 16.3038 8.99372 19.038 8.58399 22.5603C8.51052 23.1918 7.94048 23.6701 7.26148 23.6701H7.12888C6.41342 23.6701 5.8566 23.0892 5.93431 22.4244L6.79158 15.0582C6.85808 14.4878 7.37244 14.0553 7.98615 14.0553H16.0493C16.6625 14.0553 17.1774 14.4873 17.2438 15.0577C17.3214 15.7242 16.7635 16.3038 16.0494 16.3038Z" fill="#D1E7FF"/>
<path d="M20.8307 0.584961H3.20472C1.43764 0.584961 0 1.92989 0 3.58302V33.5636C0 35.2168 1.43764 36.5617 3.20472 36.5617H20.8307C22.5978 36.5617 24.0354 35.2168 24.0354 33.5636V3.58302C24.0354 1.92989 22.5978 0.584961 20.8307 0.584961ZM20.8307 35.3625H3.20472C2.14452 35.3625 1.28189 34.5556 1.28189 33.5636V3.58302C1.28189 2.59111 2.14452 1.78419 3.20472 1.78419H20.8307C21.8909 1.78419 22.7535 2.59111 22.7535 3.58302V30.1159H4.40649C4.05253 30.1159 3.76555 30.3843 3.76555 30.7155C3.76555 31.0466 4.05253 31.3151 4.40649 31.3151H22.7535V33.5636C22.7535 34.5556 21.8909 35.3625 20.8307 35.3625ZM13.4598 33.1889C13.4598 33.52 13.1728 33.7885 12.8189 33.7885H11.2165C10.8626 33.7885 10.5756 33.52 10.5756 33.1889C10.5756 32.8578 10.8626 32.5893 11.2165 32.5893H12.8189C13.1728 32.5893 13.4598 32.8578 13.4598 33.1889ZM7.1289 24.2697H16.9065C18.0027 24.2697 18.857 23.3781 18.7384 22.3592L17.8812 14.9933C17.7792 14.1169 16.9916 13.456 16.0493 13.456H15.456V12.3459C15.4559 10.5723 13.9135 9.12944 12.0177 9.12944C10.1219 9.12944 8.57952 10.5723 8.57952 12.3459V13.4559H7.98616C7.04381 13.4559 6.25633 14.1168 6.15426 14.9933L5.29708 22.3592C5.17843 23.3786 6.03337 24.2697 7.1289 24.2697V24.2697ZM6.57136 22.489L7.42854 15.1231C7.45963 14.8563 7.69926 14.6552 7.98608 14.6552H8.57944V15.5908C8.57944 15.9219 8.86642 16.1904 9.22038 16.1904C9.57434 16.1904 9.86132 15.9219 9.86132 15.5908V12.3459C9.86132 11.2336 10.8286 10.3287 12.0176 10.3287C13.2067 10.3287 14.1739 11.2336 14.1739 12.3459V13.456H11.4015C11.0476 13.456 10.7606 13.7245 10.7606 14.0556C10.7606 14.3868 11.0476 14.6552 11.4015 14.6552H14.1739V15.5908C14.1739 15.9219 14.4609 16.1904 14.8149 16.1904C15.1688 16.1904 15.4558 15.9219 15.4558 15.5908V14.6552H16.0492C16.336 14.6552 16.5756 14.8564 16.6067 15.1231L17.4639 22.489C17.4999 22.799 17.2418 23.0704 16.9063 23.0704H7.1289C6.79497 23.0704 6.53522 22.8002 6.57136 22.489V22.489Z" fill="#007FFC"/>
</svg>
