<svg width="28" height="28" viewBox="0 0 28 28" fill="none" xmlns="http://www.w3.org/2000/svg">
<path d="M21.5934 13.4064C21.3329 13.4665 21.1489 13.6988 21.1489 13.9656M21.5934 13.4064L21.6495 13.6495L21.593 13.4065C21.5932 13.4064 21.5933 13.4064 21.5934 13.4064ZM21.5934 13.4064C24.2485 12.789 26.1017 10.4561 26.1017 7.73096C26.1017 4.51494 23.4851 1.89828 20.2692 1.89828C17.5248 1.89828 15.1239 3.8465 14.5619 6.5284C14.5063 6.79431 14.2717 6.9848 14.0001 6.9848C13.7285 6.9848 13.4938 6.79432 13.4382 6.52841C12.8761 3.8465 10.4752 1.89828 7.7308 1.89828C4.51495 1.89828 1.89828 4.51494 1.89828 7.73096C1.89828 10.4561 3.7515 12.789 6.40659 13.4064L21.1489 13.9656M21.1489 13.9656C21.1489 14.2322 21.3328 14.4644 21.593 14.5247C24.2483 15.1419 26.1017 17.4749 26.1017 20.2002C26.1017 23.4162 23.4851 26.0329 20.2692 26.0329C17.5248 26.0329 15.1239 24.0847 14.5619 21.4028M21.1489 13.9656L14.5619 21.4028M14.5619 21.4028C14.5063 21.1368 14.2717 20.9464 14.0001 20.9464C13.7285 20.9464 13.4938 21.1368 13.4382 21.4027C12.8761 24.0847 10.4752 26.0329 7.7308 26.0329C4.51495 26.0329 1.89828 23.4162 1.89828 20.2002C1.89828 17.4749 3.75168 15.1419 6.40696 14.5247C6.66724 14.4644 6.85106 14.2322 6.85106 13.9656C6.85106 13.699 6.66724 13.4667 6.40696 13.4065L14.5619 21.4028ZM27.25 7.73096C27.25 3.88143 24.1186 0.75 20.2692 0.75C17.5704 0.75 15.1516 2.32181 14.0001 4.66239C12.8484 2.32181 10.4294 0.75 7.7308 0.75C3.88142 0.75 0.75 3.88143 0.75 7.73096C0.75 10.4277 2.26822 12.8058 4.5914 13.9656C2.26822 15.1253 0.75 17.5034 0.75 20.2002C0.75 24.0497 3.88142 27.1812 7.7308 27.1812C10.4294 27.1812 12.8484 25.6093 14.0001 23.2688C15.1516 25.6093 17.5704 27.1812 20.2692 27.1812C24.1186 27.1812 27.25 24.0497 27.25 20.2002C27.25 17.5034 25.7318 15.1253 23.4086 13.9656C25.7318 12.8058 27.25 10.4277 27.25 7.73096Z" fill="#3DB370" stroke="#3DB370" stroke-width="0.5"/>
</svg>
